<svg xmlns="http://www.w3.org/2000/svg" version="1.0" preserveAspectRatio="xMidYMid meet" viewBox="61 52 173.2 175.7">  <g transform="translate(0.000000,270.000000) scale(0.100000,-0.100000)" fill="#8033a3" stroke="none"> <path d="M1035 2031 c-41 -81 -84 -159 -94 -172 -11 -13 -87 -60 -171 -104 l-151 -80 6 -48 c3 -27 22 -101 42 -165 49 -160 50 -166 14 -274 -16 -51 -40 -127 -51 -168 l-20 -75 21 -15 c12 -8 74 -44 138 -78 64 -35 130 -74 147 -87 20 -16 57 -74 110 -175 43 -83 84 -156 90 -161 8 -6 35 -1 80 15 38 13 115 38 171 55 118 36 110 37 328 -33 76 -25 140 -44 141 -43 1 1 34 63 74 137 109 205 99 194 276 290 l156 84 -6 42 c-3 22 -26 105 -50 182 l-46 141 27 88 c43 146 73 257 73 274 0 11 -33 33 -92 62 -212 106 -224 115 -274 202 -25 44 -66 120 -91 168 -35 71 -47 87 -61 82 -9 -4 -55 -18 -102 -31 -47 -14 -116 -34 -153 -45 -38 -12 -83 -19 -100 -17 -18 3 -103 26 -190 51 -87 26 -160 47 -162 47 -2 0 -38 -67 -80 -149z m170 86 c28 -9 69 -21 93 -27 l42 -11 0 -92 c0 -88 -8 -139 -32 -200 -14 -36 -35 -32 -124 24 -59 38 -144 120 -144 141 0 23 92 189 103 185 7 -2 35 -11 62 -20z m669 -72 l47 -96 -31 -39 c-36 -46 -104 -97 -177 -134 l-53 -26 -16 37 c-27 65 -43 223 -28 281 4 12 14 22 23 22 9 0 52 11 96 25 44 13 83 24 86 24 4 1 28 -42 53 -94z m-347 9 c26 9 49 16 52 16 3 0 6 -51 7 -113 1 -90 5 -122 22 -164 13 -33 18 -55 11 -58 -5 -4 -39 -11 -75 -16 -64 -9 -190 3 -206 19 -4 4 2 36 12 71 11 34 23 107 26 160 l7 98 49 -14 c43 -13 54 -13 95 1z m-319 -299 c34 -16 62 -34 62 -38 1 -44 -196 -234 -207 -200 -14 41 -88 144 -139 193 l-61 59 46 23 c35 18 53 37 74 76 l28 52 67 -68 c43 -43 90 -78 130 -97z m762 118 c22 -42 67 -79 115 -96 5 -2 -17 -31 -50 -65 -59 -61 -135 -173 -135 -199 0 -18 -7 -17 -43 9 -69 46 -177 166 -177 195 0 5 30 23 67 42 43 21 87 54 127 95 34 35 63 64 66 65 3 0 16 -20 30 -46z m-1063 -193 c47 -49 123 -163 123 -185 0 -26 -102 -50 -215 -50 l-110 0 -27 90 c-15 50 -27 97 -27 105 -1 9 31 31 80 55 44 22 83 43 86 48 7 12 39 -10 90 -63z m1307 20 c49 -26 86 -51 86 -60 0 -21 -47 -190 -55 -198 -4 -4 -45 -6 -91 -5 -87 2 -234 37 -234 56 0 36 179 263 200 255 5 -2 47 -23 94 -48z m-739 -20 c33 0 85 7 115 15 49 13 56 12 65 -1 50 -78 94 -129 145 -167 33 -25 65 -47 71 -49 8 -3 8 -21 -1 -66 -12 -61 -9 -211 5 -258 6 -18 -4 -29 -57 -65 -54 -38 -122 -114 -163 -183 -9 -15 -16 -15 -88 0 -76 16 -155 12 -234 -11 -17 -6 -25 -1 -39 26 -24 47 -131 156 -181 186 -40 23 -41 25 -30 56 12 37 16 212 4 274 -7 41 -6 43 25 59 45 23 132 108 168 164 l30 47 52 -13 c29 -8 80 -14 113 -14z m-419 -265 c7 -47 2 -250 -6 -259 -3 -2 -37 4 -75 15 -46 12 -101 19 -163 19 -84 0 -93 2 -88 18 24 85 26 100 11 148 -8 27 -15 49 -15 49 0 0 39 0 88 1 81 1 175 20 212 44 25 16 28 12 36 -35z m1078 -11 c93 -7 97 -8 92 -28 -16 -55 -17 -104 -2 -143 l15 -43 -92 0 c-81 0 -162 -13 -219 -35 -12 -5 -18 1 -23 25 -9 39 -9 209 0 248 l6 29 63 -23 c39 -14 100 -25 160 -30z m-1183 -260 c39 -9 73 -22 76 -30 8 -22 -75 -153 -134 -211 -30 -29 -57 -53 -61 -53 -4 0 -45 22 -92 49 -98 57 -98 56 -60 185 l23 76 89 0 c49 0 121 -7 159 -16z m1318 -51 c11 -38 24 -84 29 -104 l10 -37 -77 -45 c-106 -63 -105 -63 -146 -30 -53 41 -165 199 -165 231 0 10 61 36 105 45 11 3 66 5 122 6 l102 1 20 -67z m-1104 -69 c48 -46 105 -121 105 -138 0 -6 -19 -19 -41 -29 -58 -28 -153 -101 -180 -142 -13 -19 -26 -35 -29 -35 -3 1 -18 21 -34 46 -15 25 -50 60 -77 78 l-48 32 44 38 c47 39 117 134 141 192 l15 35 31 -18 c17 -10 50 -36 73 -59z m740 47 c12 -38 83 -138 134 -188 l52 -51 -42 -24 c-25 -14 -54 -43 -75 -75 l-34 -53 -67 68 c-40 40 -92 79 -128 97 -33 17 -62 31 -63 32 -21 10 77 132 143 179 55 39 71 42 80 15z m-278 -205 c2 -2 -6 -28 -18 -57 -15 -39 -22 -86 -26 -166 -3 -62 -6 -113 -7 -113 -1 1 -23 7 -51 14 -41 11 -58 11 -100 0 -27 -8 -50 -14 -50 -14 0 0 -1 48 -1 108 -2 81 -7 122 -23 166 -12 33 -19 61 -17 63 17 17 276 16 293 -1z m-307 -82 c14 -48 20 -94 20 -164 l0 -98 -101 -32 c-56 -17 -103 -29 -105 -27 -2 2 -25 42 -50 88 -29 54 -43 92 -40 105 12 46 194 192 243 194 7 0 21 -30 33 -66z m399 47 c54 -28 132 -92 170 -140 l32 -41 -34 -72 c-19 -40 -43 -84 -54 -97 l-19 -24 -102 34 -102 33 0 77 c0 86 11 157 34 212 19 43 23 44 75 18z"/> </g> </svg>