<?xml version="1.0" encoding="UTF-8"?>
<svg width="200" height="40" viewBox="0 0 200 40" fill="none" xmlns="http://www.w3.org/2000/svg">
  <path d="M20 0C8.954 0 0 8.954 0 20s8.954 20 20 20 20-8.954 20-20S31.046 0 20 0zm0 36c-8.837 0-16-7.163-16-16S11.163 4 20 4s16 7.163 16 16-7.163 16-16 16z" fill="#4F46E5"/>
  <path d="M20 8c-6.627 0-12 5.373-12 12s5.373 12 12 12 12-5.373 12-12S26.627 8 20 8zm0 20c-4.411 0-8-3.589-8-8s3.589-8 8-8 8 3.589 8 8-3.589 8-8 8z" fill="#4F46E5"/>
  <text x="50" y="28" font-family="Arial" font-size="24" font-weight="bold" fill="#4F46E5">IntraCore</text>
</svg> 